<?xml version="1.0" encoding="utf-8"?>
<svg version="1.1" id="Layer_1" xmlns="http://www.w3.org/2000/svg" xmlns:xlink="http://www.w3.org/1999/xlink" x="0px" y="0px"
	 viewBox="0 0 165 64" style="enable-background:new 0 0 165 64;" xml:space="preserve">
<style type="text/css">
	.st0{fill:#D39D0F;}
	.st1{fill:#FBF2D6;}
	.st2{fill:#F9C500;}
</style>
<path d="M74,48l-2.2-12.3l-1.1,4.1V48h-5.1V15.8h5.1v14.7l3-14.7h4.9l-3.2,14.8L79.1,48H74z M88.3,23.3l-1.4,13.4h2.4L88.3,23.3z
	M90.1,48l-0.4-6.3h-3.3L85.9,48H81l3.9-34.9h7L95.8,48H90.1z M107.1,33.1c0-0.8-0.5-1.4-1.3-1.5c-0.1,0-0.1,0-0.2,0H104v11.5h1.7
	c0.8,0,1.4-0.6,1.5-1.3c0-0.1,0-0.1,0-0.2L107.1,33.1L107.1,33.1z M107.1,17.1c0.1-0.8-0.5-1.4-1.3-1.5c-0.1,0-0.1,0-0.2,0H104v11
	h1.7c0.8,0,1.4-0.6,1.5-1.3c0-0.1,0-0.1,0-0.2L107.1,17.1L107.1,17.1z M106.2,48H98V10.7h8.3c3,0,6.8,1.1,6.8,5.9v8.6
	c0,1.8-1.1,2.9-2.7,3.9c1.7,1,2.7,2.1,2.7,3.9v9.2C113,46.9,109.2,48,106.2,48 M121.8,42.8V30.3h2.1c1,0,1.8,0.7,1.8,1.7
	c0,0.1,0,0.1,0,0.2v8.7c0.1,1-0.7,1.8-1.6,1.9c-0.1,0-0.1,0-0.2,0C123.9,42.8,121.8,42.8,121.8,42.8z M121.8,13.5h2.1
	c1,0,1.8,0.7,1.8,1.7c0,0.1,0,0.1,0,0.2v8.2c0.1,1-0.7,1.8-1.6,1.9c-0.1,0-0.1,0-0.2,0h-2.1C121.8,25.5,121.8,13.5,121.8,13.5z
	M131.5,41.9V32c0-1.6-0.8-2.8-2.8-4l-0.4-0.2l0.4-0.2c2-1.2,2.8-2.4,2.8-4v-9.3c0-5.3-4.4-6.1-7-6.1h-8.6V48h8.6
	C127.1,48,131.5,47.2,131.5,41.9 M147.9,11.6V5.8h-13.6V48h13.6v-5.6h-7.4V27.7h5v-6.1h-5v-10H147.9z M165,8.7V3h-14.4v45H165v-5.7
	h-7.9V27h5.3v-6.2h-5.3V8.7H165z"/>
<g>
	<polygon points="28.5,64 0,48 0,16 28.5,0 57,16 57,48 	"/>
	<polygon class="st0" points="4.7,45.3 28.5,58.6 52.2,45.3 52.2,18.7 28.5,5.4 4.7,18.7 	"/>
	<path class="st1" d="M47.5,33.7c-5.9-1.6-19.1,6.1-19.1,6.1s-13.2-7.7-19.1-6.1C8.5,39.5,15,46.9,28.5,49.1
		C41.9,46.9,48.5,39.5,47.5,33.7z"/>
	<path d="M36.5,40.2c0-0.1-0.1-0.5-0.1-0.6l0,0c1.6-1.4,2.9-3.1,3.6-5c0.6-1.6,1-3.3,1-5c0.1-6.2-4.3-11.6-10.4-12.8h0.1
		c-0.9-0.2-1.6-1.4-1.8-2.8c-0.2-1.4-0.3-2.8-0.3-4.1c0.7-0.1,1.2-0.7,1.1-1.4S29,7.3,28.3,7.4c-0.7,0.1-1.2,0.7-1.1,1.4
		c0.1,0.6,0.5,1.1,1.1,1.1c0.1,1.4,0,2.8-0.3,4.1c-0.2,1.5-0.9,2.7-1.8,2.8l0,0c-6.1,1.2-10.5,6.6-10.4,12.8c0,1.7,0.3,3.3,0.9,4.8
		c0.8,2.1,2.2,4,4,5.4v0.1l0,0c-0.3,2.4-0.1,4.8,0.6,7.2c0.5,1.8,1.4,3.5,2.6,4.9c1.1,1.4,2.8,2.3,4.6,2.5h0.1
		c1.8-0.1,3.5-1,4.6-2.4c1.2-1.5,2.1-3.2,2.7-5C36.5,44.9,36.8,42.6,36.5,40.2"/>
	<path class="st2" d="M22.6,44c-0.1-1-0.1-2-0.1-3c3.8,2.1,8.4,2.1,12.2-0.2c0.1,1.1,0.1,2.1,0,3.2c-1.9,0.9-3.9,1.3-6,1.3
		C26.6,45.4,24.5,45,22.6,44"/>
	<path class="st2" d="M20.8,26.6c0-0.7,0.5-1.3,1.2-1.3h0.1h12.6c0.7,0,1.3,0.5,1.4,1.2c0,0,0,0,0,0.1l1.5,7.2
		c0,0.7-0.5,1.3-1.2,1.3c-0.1,0-0.1,0-0.2,0H20.7c-0.7,0.1-1.3-0.4-1.4-1.1c0-0.1,0-0.1,0-0.2L20.8,26.6z"/>
	<path class="st2" d="M33.1,51c-2.9,0.9-6,0.9-8.9-0.1c-0.6-1-1.1-2-1.5-3.1c1.9,0.9,3.9,1.4,6,1.3c0.5,0,1.1,0,1.6-0.1
		c1.1-0.1,2.2-0.4,3.2-0.8c0.3-0.1,0.7-0.3,1-0.4C34.2,49,33.7,50,33.1,51"/>
	<path id="Path_43_1_" d="M25,31.4c0.6,0,1.1-0.5,1.1-1.1s-0.5-1.1-1.1-1.1s-1.1,0.5-1.1,1.1l0,0C23.9,30.9,24.4,31.4,25,31.4
		L25,31.4"/>
	<path id="Path_44_1_" d="M32,31.4c0.6,0,1.1-0.5,1.1-1.1s-0.5-1.1-1.1-1.1s-1.1,0.5-1.1,1.1l0,0C31,30.9,31.4,31.4,32,31.4L32,31.4
		"/>
	<path id="Path_45_1_" d="M36.3,12.6v-0.7H36v-0.1h0.7v0.1h-0.3v0.7H36.3z M36.8,12.6v-0.9H37l0.2,0.7l0.2-0.7h0.2v0.9h-0.1v-0.7
		l-0.2,0.7h-0.1L37,11.8v0.7L36.8,12.6z"/>
</g>
</svg>
